<?xml version="1.0" encoding="UTF-8" standalone="no"?>
<svg
   width="24px"
   stroke-width="1.5"
   height="24px"
   viewBox="0 0 24 24"
   fill="none"
   color="#000000"
   version="1.1"
   id="svg5"
   sodipodi:docname="flask.svg"
   inkscape:export-filename="flask.png"
   inkscape:export-xdpi="2048"
   inkscape:export-ydpi="2048"
   inkscape:version="1.4 (86a8ad7, 2024-10-11)"
   xmlns:inkscape="http://www.inkscape.org/namespaces/inkscape"
   xmlns:sodipodi="http://sodipodi.sourceforge.net/DTD/sodipodi-0.dtd"
   xmlns="http://www.w3.org/2000/svg"
   xmlns:svg="http://www.w3.org/2000/svg">
  <defs
     id="defs5" />
  <sodipodi:namedview
     id="namedview5"
     pagecolor="#505050"
     bordercolor="#eeeeee"
     borderopacity="1"
     inkscape:showpageshadow="0"
     inkscape:pageopacity="0"
     inkscape:pagecheckerboard="0"
     inkscape:deskcolor="#505050"
     inkscape:zoom="34.383067"
     inkscape:cx="8.8706455"
     inkscape:cy="9.8449623"
     inkscape:window-width="2560"
     inkscape:window-height="1369"
     inkscape:window-x="2552"
     inkscape:window-y="-8"
     inkscape:window-maximized="1"
     inkscape:current-layer="svg5" />
  <path
     d="M18.5 15L5.5 15"
     stroke="#000000"
     stroke-width="1.5"
     stroke-linejoin="round"
     id="path1"
     style="stroke:#ffffff;stroke-opacity:1" />
  <path
     d="M16 4L8 4"
     stroke="#000000"
     stroke-width="1.5"
     stroke-linecap="round"
     stroke-linejoin="round"
     id="path2"
     style="stroke:#ffffff;stroke-opacity:1" />
  <path
     d="M9 4.5L9 10.2602C9 10.7376 8.82922 11.1992 8.51851 11.5617L3.48149 17.4383C3.17078 17.8008 3 18.2624 3 18.7398V19C3 20.1046 3.89543 21 5 21L19 21C20.1046 21 21 20.1046 21 19V18.7398C21 18.2624 20.8292 17.8008 20.5185 17.4383L15.4815 11.5617C15.1708 11.1992 15 10.7376 15 10.2602L15 4.5"
     stroke="#000000"
     stroke-width="1.5"
     stroke-linecap="round"
     stroke-linejoin="round"
     id="path3"
     style="stroke:#ffffff;stroke-opacity:1" />
  <path
     d="M12 9.01L12.01 8.99889"
     stroke="#000000"
     stroke-width="1.5"
     stroke-linecap="round"
     stroke-linejoin="round"
     id="path4"
     style="stroke:#ffffff;stroke-opacity:1" />
  <path
     d="M11 2.01L11.01 1.99889"
     stroke="#000000"
     stroke-width="1.5"
     stroke-linecap="round"
     stroke-linejoin="round"
     id="path5"
     style="stroke:#ffffff;stroke-opacity:1" />
</svg>
