<svg id="visual" viewBox="0 0 900 600" width="900" height="600" xmlns="http://www.w3.org/2000/svg" xmlns:xlink="http://www.w3.org/1999/xlink" version="1.1">
    <defs>
        <filter id="blur">
            <feGaussianBlur stdDeviation="40" />
        </filter>
    </defs>
    <g filter="url(#blur)">
        <path d="M0 37L25 33C50 29 100 21 150 19C200 17 250 21 300 30C350 39 400 53 450 57C500 61 550 55 600 52C650 49 700 49 750 51C800 53 850 57 875 59L900 61L900 0L875 0C850 0 800 0 750 0C700 0 650 0 600 0C550 0 500 0 450 0C400 0 350 0 300 0C250 0 200 0 150 0C100 0 50 0 25 0L0 0Z" fill="#001e6f"></path>
        <path d="M0 97L25 95C50 93 100 89 150 91C200 93 250 101 300 118C350 135 400 161 450 160C500 159 550 131 600 124C650 117 700 131 750 128C800 125 850 105 875 95L900 85L900 59L875 57C850 55 800 51 750 49C700 47 650 47 600 50C550 53 500 59 450 55C400 51 350 37 300 28C250 19 200 15 150 17C100 19 50 27 25 31L0 35Z" fill="#001b60"></path>
        <path d="M0 187L25 179C50 171 100 155 150 163C200 171 250 203 300 233C350 263 400 291 450 293C500 295 550 271 600 267C650 263 700 279 750 280C800 281 850 267 875 260L900 253L900 83L875 93C850 103 800 123 750 126C700 129 650 115 600 122C550 129 500 157 450 158C400 159 350 133 300 116C250 99 200 91 150 89C100 87 50 91 25 93L0 95Z" fill="#001751"></path>
        <path d="M0 211L25 203C50 195 100 179 150 190C200 201 250 239 300 267C350 295 400 313 450 316C500 319 550 307 600 307C650 307 700 319 750 317C800 315 850 299 875 291L900 283L900 251L875 258C850 265 800 279 750 278C700 277 650 261 600 265C550 269 500 293 450 291C400 289 350 261 300 231C250 201 200 169 150 161C100 153 50 169 25 177L0 185Z" fill="#001342"></path>
        <path d="M0 427L25 413C50 399 100 371 150 370C200 369 250 395 300 404C350 413 400 405 450 404C500 403 550 409 600 409C650 409 700 403 750 396C800 389 850 381 875 377L900 373L900 281L875 289C850 297 800 313 750 315C700 317 650 305 600 305C550 305 500 317 450 314C400 311 350 293 300 265C250 237 200 199 150 188C100 177 50 193 25 201L0 209Z" fill="#000c34"></path>
        <path d="M0 463L25 458C50 453 100 443 150 447C200 451 250 469 300 478C350 487 400 487 450 479C500 471 550 455 600 445C650 435 700 431 750 435C800 439 850 451 875 457L900 463L900 371L875 375C850 379 800 387 750 394C700 401 650 407 600 407C550 407 500 401 450 402C400 403 350 411 300 402C250 393 200 367 150 368C100 369 50 397 25 411L0 425Z" fill="#00072c"></path>
        <path d="M0 487L25 484C50 481 100 475 150 480C200 485 250 501 300 509C350 517 400 517 450 507C500 497 550 477 600 471C650 465 700 473 750 482C800 491 850 501 875 506L900 511L900 461L875 455C850 449 800 437 750 433C700 429 650 433 600 443C550 453 500 469 450 477C400 485 350 485 300 476C250 467 200 449 150 445C100 441 50 451 25 456L0 461Z" fill="#01072a"></path>
        <path d="M0 517L25 521C50 525 100 533 150 536C200 539 250 537 300 537C350 537 400 539 450 535C500 531 550 521 600 524C650 527 700 543 750 548C800 553 850 547 875 544L900 541L900 509L875 504C850 499 800 489 750 480C700 471 650 463 600 469C550 475 500 495 450 505C400 515 350 515 300 507C250 499 200 483 150 478C100 473 50 479 25 482L0 485Z" fill="#010627"></path>
        <path d="M0 559L25 559C50 559 100 559 150 563C200 567 250 575 300 580C350 585 400 587 450 586C500 585 550 581 600 579C650 577 700 577 750 579C800 581 850 585 875 587L900 589L900 539L875 542C850 545 800 551 750 546C700 541 650 525 600 522C550 519 500 529 450 533C400 537 350 535 300 535C250 535 200 537 150 534C100 531 50 523 25 519L0 515Z" fill="#010625"></path>
        <path d="M0 601L25 601C50 601 100 601 150 601C200 601 250 601 300 601C350 601 400 601 450 601C500 601 550 601 600 601C650 601 700 601 750 601C800 601 850 601 875 601L900 601L900 587L875 585C850 583 800 579 750 577C700 575 650 575 600 577C550 579 500 583 450 584C400 585 350 583 300 578C250 573 200 565 150 561C100 557 50 557 25 557L0 557Z" fill="#010623"></path>
    </g>
</svg>
